HIERARCHY
ROOT Hips
{
	OFFSET -36.480297 -30.199697 87.527466
	CHANNELS 6 Xposition Yposition Zposition Zrotation Yrotation Xrotation
	JOINT Spine
	{
		OFFSET 0.000000 2.080109 8.814247
		CHANNELS 6 Xposition Yposition Zposition Zrotation Yrotation Xrotation
		JOINT Spine1
		{
			OFFSET 0.000000 0.000000 8.844139
			CHANNELS 6 Xposition Yposition Zposition Zrotation Yrotation Xrotation
			JOINT Spine2
			{
				OFFSET 0.000000 0.000002 11.682266
				CHANNELS 6 Xposition Yposition Zposition Zrotation Yrotation Xrotation
				JOINT Spine3
				{
					OFFSET 0.000000 0.000000 11.746704
					CHANNELS 6 Xposition Yposition Zposition Zrotation Yrotation Xrotation
					JOINT Neck
					{
						OFFSET 0.000000 0.000002 17.658264
						CHANNELS 6 Xposition Yposition Zposition Zrotation Yrotation Xrotation
						JOINT Neck1
						{
							OFFSET 0.000000 0.000000 5.101517
							CHANNELS 6 Xposition Yposition Zposition Zrotation Yrotation Xrotation
							JOINT Head
							{
								OFFSET 0.000000 0.000000 5.101517
								CHANNELS 6 Xposition Yposition Zposition Zrotation Yrotation Xrotation
								JOINT HeadEnd
								{
									OFFSET 0.000000 0.000002 11.655090
									CHANNELS 6 Xposition Yposition Zposition Zrotation Yrotation Xrotation
									End Site
									{
										OFFSET 0.000000 0.000000 0.100006
									}
								}
							}
						}
					}
					JOINT RightShoulder
					{
						OFFSET -2.625389 0.000002 11.175217
						CHANNELS 6 Xposition Yposition Zposition Zrotation Yrotation Xrotation
						JOINT RightArm
						{
							OFFSET 0.000000 0.000000 10.434723
							CHANNELS 6 Xposition Yposition Zposition Zrotation Yrotation Xrotation
							JOINT RightForeArm
							{
								OFFSET 0.000000 0.000002 29.628418
								CHANNELS 6 Xposition Yposition Zposition Zrotation Yrotation Xrotation
								JOINT RightHand
								{
									OFFSET 0.000000 0.000002 22.857605
									CHANNELS 6 Xposition Yposition Zposition Zrotation Yrotation Xrotation
									JOINT RightHandThumb1
									{
										OFFSET -2.867321 -2.944292 3.959564
										CHANNELS 6 Xposition Yposition Zposition Zrotation Yrotation Xrotation
										JOINT RightHandThumb2
										{
											OFFSET 0.000000 0.000000 3.350403
											CHANNELS 6 Xposition Yposition Zposition Zrotation Yrotation Xrotation
											JOINT RightHandThumb3
											{
												OFFSET 0.000000 0.000000 3.756516
												CHANNELS 6 Xposition Yposition Zposition Zrotation Yrotation Xrotation
												JOINT RightHandThumb4
												{
													OFFSET 0.000000 0.000002 3.147339
													CHANNELS 6 Xposition Yposition Zposition Zrotation Yrotation Xrotation
													End Site
													{
														OFFSET 0.000000 0.000000 0.100006
													}
												}
											}
										}
									}
									JOINT RightHandIndex1
									{
										OFFSET -0.086754 -2.345280 10.030899
										CHANNELS 6 Xposition Yposition Zposition Zrotation Yrotation Xrotation
										JOINT RightHandIndex2
										{
											OFFSET 0.000000 0.000002 4.061096
											CHANNELS 6 Xposition Yposition Zposition Zrotation Yrotation Xrotation
											JOINT RightHandIndex3
											{
												OFFSET 0.000000 0.000000 3.248871
												CHANNELS 6 Xposition Yposition Zposition Zrotation Yrotation Xrotation
												JOINT RightHandIndex4
												{
													OFFSET 0.000000 0.000000 2.639709
													CHANNELS 6 Xposition Yposition Zposition Zrotation Yrotation Xrotation
													End Site
													{
														OFFSET 0.000000 0.000000 0.100006
													}
												}
											}
										}
									}
									JOINT RightHandMiddle1
									{
										OFFSET 0.104103 -0.006767 9.502945
										CHANNELS 6 Xposition Yposition Zposition Zrotation Yrotation Xrotation
										JOINT RightHandMiddle2
										{
											OFFSET 0.000000 0.000002 4.568726
											CHANNELS 6 Xposition Yposition Zposition Zrotation Yrotation Xrotation
											JOINT RightHandMiddle3
											{
												OFFSET 0.000000 0.000000 3.654984
												CHANNELS 6 Xposition Yposition Zposition Zrotation Yrotation Xrotation
												JOINT RightHandMiddle4
												{
													OFFSET 0.000000 0.000000 2.741241
													CHANNELS 6 Xposition Yposition Zposition Zrotation Yrotation Xrotation
													End Site
													{
														OFFSET 0.000000 0.000000 0.100006
													}
												}
											}
										}
									}
									JOINT RightHandRing1
									{
										OFFSET 0.086754 2.267443 8.921707
										CHANNELS 6 Xposition Yposition Zposition Zrotation Yrotation Xrotation
										JOINT RightHandRing2
										{
											OFFSET 0.000000 0.000002 4.061096
											CHANNELS 6 Xposition Yposition Zposition Zrotation Yrotation Xrotation
											JOINT RightHandRing3
											{
												OFFSET 0.000000 0.000000 3.654984
												CHANNELS 6 Xposition Yposition Zposition Zrotation Yrotation Xrotation
												JOINT RightHandRing4
												{
													OFFSET 0.000000 0.000000 2.741241
													CHANNELS 6 Xposition Yposition Zposition Zrotation Yrotation Xrotation
													End Site
													{
														OFFSET 0.000000 0.000000 0.100006
													}
												}
											}
										}
									}
									JOINT RightHandPinky1
									{
										OFFSET -0.173504 4.467199 7.976990
										CHANNELS 6 Xposition Yposition Zposition Zrotation Yrotation Xrotation
										JOINT RightHandPinky2
										{
											OFFSET 0.000000 0.000000 3.350403
											CHANNELS 6 Xposition Yposition Zposition Zrotation Yrotation Xrotation
											JOINT RightHandPinky3
											{
												OFFSET 0.000000 0.000002 2.842758
												CHANNELS 6 Xposition Yposition Zposition Zrotation Yrotation Xrotation
												JOINT RightHandPinky4
												{
													OFFSET 0.000000 0.000000 2.639709
													CHANNELS 6 Xposition Yposition Zposition Zrotation Yrotation Xrotation
													End Site
													{
														OFFSET 0.000000 0.000000 0.100006
													}
												}
											}
										}
									}
									JOINT RightForeArmEnd
									{
										OFFSET 0.000000 0.000000 0.000000
										CHANNELS 6 Xposition Yposition Zposition Zrotation Yrotation Xrotation
										End Site
										{
											OFFSET 0.000000 0.000000 0.100006
										}
									}
								}
								JOINT RightArmEnd
								{
									OFFSET 0.000000 0.000000 0.000000
									CHANNELS 6 Xposition Yposition Zposition Zrotation Yrotation Xrotation
									End Site
									{
										OFFSET 0.000000 0.000000 0.100006
									}
								}
							}
						}
					}
					JOINT LeftShoulder
					{
						OFFSET 2.625389 0.000002 11.175217
						CHANNELS 6 Xposition Yposition Zposition Zrotation Yrotation Xrotation
						JOINT LeftArm
						{
							OFFSET 0.000000 0.000000 10.813629
							CHANNELS 6 Xposition Yposition Zposition Zrotation Yrotation Xrotation
							JOINT LeftForeArm
							{
								OFFSET 0.000000 0.000002 28.724777
								CHANNELS 6 Xposition Yposition Zposition Zrotation Yrotation Xrotation
								JOINT LeftHand
								{
									OFFSET 0.644382 0.328873 25.716171
									CHANNELS 6 Xposition Yposition Zposition Zrotation Yrotation Xrotation
									JOINT LeftHandThumb1
									{
										OFFSET 2.867323 -2.944290 3.959564
										CHANNELS 6 Xposition Yposition Zposition Zrotation Yrotation Xrotation
										JOINT LeftHandThumb2
										{
											OFFSET 0.000000 0.000000 3.350403
											CHANNELS 6 Xposition Yposition Zposition Zrotation Yrotation Xrotation
											JOINT LeftHandThumb3
											{
												OFFSET 0.000000 0.000002 3.756516
												CHANNELS 6 Xposition Yposition Zposition Zrotation Yrotation Xrotation
												JOINT LeftHandThumb4
												{
													OFFSET 0.000000 0.000000 3.100006
													CHANNELS 6 Xposition Yposition Zposition Zrotation Yrotation Xrotation
													End Site
													{
														OFFSET 0.000000 0.000000 0.100006
													}
												}
											}
										}
									}
									JOINT LeftHandIndex1
									{
										OFFSET 0.086754 -2.345278 10.030899
										CHANNELS 6 Xposition Yposition Zposition Zrotation Yrotation Xrotation
										JOINT LeftHandIndex2
										{
											OFFSET 0.000000 0.000000 4.061096
											CHANNELS 6 Xposition Yposition Zposition Zrotation Yrotation Xrotation
											JOINT LeftHandIndex3
											{
												OFFSET 0.000000 0.000000 3.248871
												CHANNELS 6 Xposition Yposition Zposition Zrotation Yrotation Xrotation
												JOINT LeftHandIndex4
												{
													OFFSET 0.000000 0.000000 2.639709
													CHANNELS 6 Xposition Yposition Zposition Zrotation Yrotation Xrotation
													End Site
													{
														OFFSET 0.000000 0.000000 0.100006
													}
												}
											}
										}
									}
									JOINT LeftHandMiddle1
									{
										OFFSET -0.104103 -0.006767 9.502945
										CHANNELS 6 Xposition Yposition Zposition Zrotation Yrotation Xrotation
										JOINT LeftHandMiddle2
										{
											OFFSET 0.000000 0.000002 4.568726
											CHANNELS 6 Xposition Yposition Zposition Zrotation Yrotation Xrotation
											JOINT LeftHandMiddle3
											{
												OFFSET 0.000000 0.000000 3.654984
												CHANNELS 6 Xposition Yposition Zposition Zrotation Yrotation Xrotation
												JOINT LeftHandMiddle4
												{
													OFFSET 0.000000 0.000000 2.741241
													CHANNELS 6 Xposition Yposition Zposition Zrotation Yrotation Xrotation
													End Site
													{
														OFFSET 0.000000 0.000000 0.100006
													}
												}
											}
										}
									}
									JOINT LeftHandRing1
									{
										OFFSET -0.086754 2.267443 8.921707
										CHANNELS 6 Xposition Yposition Zposition Zrotation Yrotation Xrotation
										JOINT LeftHandRing2
										{
											OFFSET 0.000000 0.000002 4.061096
											CHANNELS 6 Xposition Yposition Zposition Zrotation Yrotation Xrotation
											JOINT LeftHandRing3
											{
												OFFSET 0.000000 0.000000 3.654984
												CHANNELS 6 Xposition Yposition Zposition Zrotation Yrotation Xrotation
												JOINT LeftHandRing4
												{
													OFFSET 0.000000 0.000000 2.741241
													CHANNELS 6 Xposition Yposition Zposition Zrotation Yrotation Xrotation
													End Site
													{
														OFFSET 0.000000 0.000000 0.100006
													}
												}
											}
										}
									}
									JOINT LeftHandPinky1
									{
										OFFSET 0.173504 4.467199 7.976990
										CHANNELS 6 Xposition Yposition Zposition Zrotation Yrotation Xrotation
										JOINT LeftHandPinky2
										{
											OFFSET 0.000000 0.000002 3.350403
											CHANNELS 6 Xposition Yposition Zposition Zrotation Yrotation Xrotation
											JOINT LeftHandPinky3
											{
												OFFSET 0.000000 0.000000 2.842758
												CHANNELS 6 Xposition Yposition Zposition Zrotation Yrotation Xrotation
												JOINT LeftHandPinky4
												{
													OFFSET 0.000000 0.000000 2.639709
													CHANNELS 6 Xposition Yposition Zposition Zrotation Yrotation Xrotation
													End Site
													{
														OFFSET 0.000000 0.000000 0.100006
													}
												}
											}
										}
									}
									JOINT LeftForeArmEnd
									{
										OFFSET 0.000000 0.000000 0.000000
										CHANNELS 6 Xposition Yposition Zposition Zrotation Yrotation Xrotation
										End Site
										{
											OFFSET 0.000000 0.000000 0.100006
										}
									}
								}
								JOINT LeftArmEnd
								{
									OFFSET 0.000000 0.000000 0.000000
									CHANNELS 6 Xposition Yposition Zposition Zrotation Yrotation Xrotation
									End Site
									{
										OFFSET 0.000000 0.000000 0.100006
									}
								}
							}
						}
					}
				}
			}
		}
	}
	JOINT RightUpLeg
	{
		OFFSET -11.289944 0.000000 0.000000
		CHANNELS 6 Xposition Yposition Zposition Zrotation Yrotation Xrotation
		JOINT RightLeg
		{
			OFFSET 0.000000 -0.000002 -38.200321
			CHANNELS 6 Xposition Yposition Zposition Zrotation Yrotation Xrotation
			JOINT RightFoot
			{
				OFFSET 0.000000 -0.000004 -39.900856
				CHANNELS 6 Xposition Yposition Zposition Zrotation Yrotation Xrotation
				JOINT RightToeBase
				{
					OFFSET 0.000000 -15.261639 0.000002
					CHANNELS 6 Xposition Yposition Zposition Zrotation Yrotation Xrotation
					JOINT RightToeBaseEnd
					{
						OFFSET 0.000000 -7.370708 0.000000
						CHANNELS 6 Xposition Yposition Zposition Zrotation Yrotation Xrotation
						End Site
						{
							OFFSET 0.000000 0.000000 0.100000
						}
					}
				}
				JOINT RightLegEnd
				{
					OFFSET 0.000000 0.000000 0.000000
					CHANNELS 6 Xposition Yposition Zposition Zrotation Yrotation Xrotation
					End Site
					{
						OFFSET 0.000000 0.000000 0.100000
					}
				}
			}
			JOINT RightUpLegEnd
			{
				OFFSET 0.000000 0.000000 0.000000
				CHANNELS 6 Xposition Yposition Zposition Zrotation Yrotation Xrotation
				End Site
				{
					OFFSET 0.000000 0.000000 0.099998
				}
			}
		}
	}
	JOINT LeftUpLeg
	{
		OFFSET 11.315662 0.000000 0.000000
		CHANNELS 6 Xposition Yposition Zposition Zrotation Yrotation Xrotation
		JOINT LeftLeg
		{
			OFFSET 0.000000 -0.000002 -38.200321
			CHANNELS 6 Xposition Yposition Zposition Zrotation Yrotation Xrotation
			JOINT LeftFoot
			{
				OFFSET 0.000000 -0.000004 -39.900856
				CHANNELS 6 Xposition Yposition Zposition Zrotation Yrotation Xrotation
				JOINT LeftToeBase
				{
					OFFSET 0.000000 -15.261639 0.000002
					CHANNELS 6 Xposition Yposition Zposition Zrotation Yrotation Xrotation
					JOINT LeftToeBaseEnd
					{
						OFFSET 0.000000 -7.539997 0.000000
						CHANNELS 6 Xposition Yposition Zposition Zrotation Yrotation Xrotation
						End Site
						{
							OFFSET 0.000000 0.000000 0.100000
						}
					}
				}
				JOINT LeftLegEnd
				{
					OFFSET 0.000000 0.000000 0.000000
					CHANNELS 6 Xposition Yposition Zposition Zrotation Yrotation Xrotation
					End Site
					{
						OFFSET 0.000000 0.000000 0.100000
					}
				}
			}
			JOINT LeftUpLegEnd
			{
				OFFSET 0.000000 0.000000 0.000000
				CHANNELS 6 Xposition Yposition Zposition Zrotation Yrotation Xrotation
				End Site
				{
					OFFSET 0.000000 0.000000 0.099998
				}
			}
		}
	}
}
MOTION
Frames: 2
Frame Time: 0.016667
3.348457 -10.751194 81.302841 17.840702 1.120252 0.476594 -0.000001 2.080104 8.814244 -0.887799 -4.314812 13.358901 -0.000002 -0.000008 8.844160 -1.009206 -2.632798 12.448123 -0.000003 0.000005 11.682270 0.022160 -1.277069 7.196870 -0.000004 -0.000004 11.746714 0.410586 0.175061 1.747049 -0.000004 -0.000013 17.658258 -8.084022 -18.076951 15.280742 0.000010 -0.000009 5.101529 -2.833943 2.607807 -2.576365 -0.000007 -0.000013 5.101534 3.370336 -2.264097 -14.302237 0.000003 0.000003 11.655120 -0.000000 -0.000000 0.000001 -2.625403 -0.000007 11.175220 12.464265 -85.949372 -0.250787 -0.000031 0.000001 10.434709 -68.841244 -10.108434 56.159878 -0.000008 0.000004 29.628443 6.612737 0.992776 49.244581 0.000005 -0.000003 22.857653 -2.967891 15.329082 9.960017 -2.867317 -2.944297 3.959591 31.604576 -17.443434 51.240431 0.000000 -0.000005 3.350425 -13.067137 8.582374 -23.536806 -0.000004 0.000008 3.756531 -8.692323 6.542667 -16.108579 0.000001 0.000004 3.147341 0.000000 0.000000 -0.000004 -0.086768 -2.345293 10.030946 -11.305974 -14.273798 25.254710 -0.000005 0.000006 4.061098 0.304459 -12.502527 1.785820 -0.000001 0.000004 3.248870 -0.195610 -12.502526 1.785827 -0.000000 -0.000004 2.639726 -0.000002 0.000003 0.000002 0.104090 -0.006772 9.503015 -5.847452 -12.594638 21.428117 0.000005 0.000006 4.568706 0.455862 -9.835280 0.520462 -0.000000 0.000002 3.654984 -0.044454 -9.835279 0.520513 0.000000 -0.000002 2.741256 0.000000 0.000001 0.000003 0.086743 2.267428 8.921773 2.976486 -8.931810 18.543332 0.000002 0.000009 4.061127 -0.985252 -5.305095 -0.325386 -0.000002 -0.000005 3.655011 0.011389 -5.305389 -0.325072 0.000005 -0.000003 2.741258 0.000001 0.000001 -0.000003 -0.173511 4.467202 7.977032 12.035195 -6.609238 14.288718 -0.000000 0.000004 3.350410 -1.994164 -2.279856 -0.443264 0.000001 -0.000007 2.842767 0.009253 -2.279823 -0.443433 0.000000 -0.000003 2.639724 0.000000 0.000001 0.000003 -0.000007 -0.000001 0.000015 0.000000 -0.000000 -0.000001 -0.000009 0.000003 0.000000 0.000000 0.000000 -0.000000 2.625401 -0.000007 11.175224 -13.422491 81.412501 -0.684454 0.000010 -0.000010 10.813639 67.430537 13.101528 61.201951 -0.000007 -0.000005 28.724792 2.796117 -1.116761 55.447428 0.644374 0.328869 25.716200 -2.281321 -17.729098 3.448657 2.867319 -2.944282 3.959543 -31.715895 16.574113 52.574042 -0.000000 -0.000001 3.350405 11.148134 -7.773139 -20.314420 0.000002 0.000000 3.756511 7.443092 -5.826156 -13.926071 -0.000002 -0.000001 3.099990 -0.000001 -0.000001 -0.000000 0.086752 -2.345277 10.030891 -5.757915 17.868547 12.574886 0.000005 0.000003 4.061109 0.347126 11.147740 -1.586598 0.000004 0.000003 3.248897 -0.152650 11.147757 -1.585097 0.000004 -0.000001 2.639725 0.000002 0.000001 0.000000 -0.104102 -0.006766 9.502952 -1.335994 12.824472 13.015320 0.000002 0.000004 4.568727 0.469130 8.529488 -0.449171 -0.000000 0.000003 3.654984 -0.029751 8.529493 -0.448748 0.000002 -0.000006 2.741226 0.000000 0.000002 0.000003 -0.086755 2.267442 8.921700 5.258266 3.906706 14.935759 0.000002 -0.000000 4.061131 -0.992789 3.585593 0.219815 0.000001 0.000001 3.654991 -0.006290 3.585914 0.218372 -0.000001 -0.000003 2.741257 -0.000000 0.000000 0.000001 0.173501 4.467199 7.976982 12.471025 -3.992814 14.030575 0.000001 -0.000003 3.350403 -2.018446 -0.000026 -0.009522 0.000004 -0.000005 2.842737 -0.044251 -0.000087 0.009750 0.000000 -0.000003 2.639711 -0.000000 0.000001 -0.000003 -0.000007 0.000004 0.000031 0.000000 0.000001 -0.000000 -0.000010 -0.000004 0.000030 0.000002 -0.000002 -0.000000 -11.289946 0.000001 0.000011 -12.173415 4.734526 -26.205076 -0.000000 -0.000001 -38.200321 -0.274731 0.298240 47.442842 -0.000001 -0.000006 -39.900860 -9.040168 -2.356001 7.612808 -0.000001 -15.261639 0.000004 -0.215935 -0.723890 -29.379324 0.000005 -7.370705 -0.000001 0.000000 0.000000 -0.000000 0.000000 -0.000000 0.000001 0.000000 -0.000001 -0.000001 -0.000001 -0.000001 -0.000004 -0.000000 -0.000000 -0.000001 11.315662 0.000002 0.000003 16.030512 -9.191501 -27.870852 -0.000000 0.000005 -38.200314 0.374716 -0.396057 46.580319 -0.000003 -0.000000 -39.900856 8.133937 5.161005 8.680482 -0.000002 -15.261639 0.000005 -0.812293 1.169364 -30.458334 0.000001 -7.539992 -0.000001 -0.000003 -0.000000 -0.000000 0.000001 0.000004 -0.000001 0.000000 -0.000001 -0.000000 -0.000003 0.000006 -0.000002 0.000001 0.000002 -0.000002 
3.338455 -10.736458 81.286339 17.886925 1.114195 0.506099 -0.000000 2.080107 8.814242 -0.881378 -4.328775 13.363438 0.000005 -0.000006 8.844134 -1.009619 -2.642778 12.466593 -0.000005 -0.000001 11.682260 0.032944 -1.269912 7.223709 -0.000007 0.000004 11.746697 0.422956 0.201082 1.746129 -0.000007 -0.000012 17.658279 -8.124278 -18.143745 15.235710 -0.000003 -0.000005 5.101515 -2.829004 2.575096 -2.607254 -0.000008 -0.000003 5.101536 3.378106 -2.307916 -14.291957 -0.000004 -0.000002 11.655104 -0.000000 -0.000002 0.000001 -2.625425 -0.000010 11.175233 12.504833 -85.875811 -0.253827 -0.000028 -0.000008 10.434725 -68.843000 -10.102693 56.168761 -0.000003 0.000007 29.628428 6.558181 0.992619 49.314789 0.000008 -0.000007 22.857615 -3.026283 15.364500 9.919666 -2.867321 -2.944284 3.959565 31.604545 -17.443448 51.240451 -0.000000 0.000005 3.350421 -13.067131 8.582391 -23.536840 -0.000009 0.000020 3.756526 -8.692344 6.542682 -16.108605 0.000001 0.000008 3.147353 0.000000 -0.000000 0.000001 -0.086757 -2.345284 10.030914 -11.260591 -14.082455 25.253656 -0.000011 0.000006 4.061119 0.308754 -12.368809 1.766103 -0.000003 -0.000002 3.248878 -0.191277 -12.368925 1.766103 0.000000 0.000002 2.639711 0.000000 0.000002 0.000000 0.104102 -0.006783 9.502972 -5.812926 -12.422471 21.417031 0.000003 0.000006 4.568738 0.456782 -9.712708 0.513886 -0.000000 0.000001 3.655004 -0.043405 -9.712722 0.513911 0.000001 0.000006 2.741259 0.000001 0.000002 -0.000000 0.086751 2.267428 8.921741 3.002660 -8.779123 18.517679 -0.000000 0.000001 4.061110 -0.985640 -5.198593 -0.318863 -0.000005 0.000001 3.654995 0.010650 -5.198591 -0.318481 -0.000002 0.000001 2.741241 0.000001 0.000001 0.000002 -0.173507 4.467195 7.976989 12.058979 -6.464352 14.264414 -0.000001 -0.000008 3.350430 -1.994589 -2.185695 -0.424814 -0.000005 0.000001 2.842755 0.008838 -2.184722 -0.424976 -0.000006 -0.000003 2.639710 -0.000000 0.000001 -0.000000 -0.000002 0.000003 -0.000015 -0.000000 -0.000000 -0.000001 -0.000000 -0.000002 0.000016 -0.000000 -0.000000 -0.000001 2.625392 -0.000014 11.175241 -13.466178 81.357067 -0.683493 0.000018 -0.000008 10.813634 67.377473 12.993657 61.171297 -0.000005 0.000010 28.724789 2.829874 -1.118059 55.538556 0.644379 0.328874 25.716167 -2.099705 -17.760474 3.406271 2.867320 -2.944307 3.959561 -31.715905 16.574108 52.574111 -0.000002 0.000009 3.350417 11.148153 -7.773128 -20.314494 -0.000001 0.000007 3.756535 7.443089 -5.826139 -13.926039 0.000002 0.000004 3.100006 0.000000 -0.000001 -0.000001 0.086755 -2.345277 10.030925 -5.769633 17.784407 12.619177 0.000003 0.000001 4.061126 0.349235 11.084705 -1.577340 0.000001 0.000004 3.248892 -0.150787 11.084716 -1.577341 -0.000001 -0.000002 2.639725 0.000001 0.000000 0.000000 -0.104104 -0.006760 9.502975 -1.347113 12.758713 13.047049 0.000001 0.000003 4.568708 0.469346 8.481542 -0.446464 0.000001 0.000001 3.654999 -0.029259 8.481550 -0.446239 -0.000001 -0.000002 2.741242 0.000001 0.000003 0.000002 -0.086758 2.267439 8.921749 5.251779 3.872763 14.961338 0.000001 0.000005 4.061117 -0.993070 3.563815 0.217583 0.000000 -0.000003 3.654981 -0.005956 3.563110 0.216509 -0.000003 -0.000001 2.741242 0.000001 0.000000 -0.000000 0.173505 4.467190 7.977000 12.468395 -4.006659 14.063853 0.000002 -0.000000 3.350404 -2.017420 -0.000017 -0.009324 0.000002 0.000006 2.842760 -0.042584 -0.000108 0.010265 0.000001 -0.000000 2.639693 -0.000000 -0.000001 0.000002 -0.000001 -0.000001 0.000046 -0.000001 0.000001 0.000000 -0.000004 -0.000000 0.000000 -0.000000 -0.000000 -0.000001 -11.289948 0.000005 -0.000007 -12.223528 4.731341 -26.288097 0.000001 0.000009 -38.200317 -0.273481 0.296672 47.530580 0.000001 -0.000011 -39.900860 -9.041614 -2.357783 7.601601 -0.000000 -15.261638 0.000002 -0.212585 -0.731277 -29.404084 0.000000 -7.370708 -0.000001 -0.000000 0.000000 -0.000000 0.000000 -0.000002 0.000001 -0.000000 -0.000000 -0.000002 -0.000001 -0.000004 -0.000003 0.000000 -0.000000 -0.000001 11.315662 0.000003 -0.000012 15.976079 -9.179995 -27.960455 -0.000001 0.000010 -38.200321 0.373208 -0.395357 46.657282 -0.000000 -0.000002 -39.900856 8.148848 5.168846 8.698204 -0.000001 -15.261635 0.000007 -0.814327 1.173239 -30.496323 0.000005 -7.539989 0.000001 -0.000001 -0.000000 0.000000 0.000001 0.000003 0.000000 -0.000001 -0.000001 0.000004 0.000002 0.000000 -0.000001 0.000002 -0.000001 0.000001 
